{
	"asset":{
		"version":"2.0",
		"generator":"Created using the official Cinema 4D glTF Exporter 1.000x284978"
	},
	"meshes":[{
		"primitives":[{
			"attributes":{
				"POSITION":5,
				"NORMAL":6,
				"TEXCOORD_0":7
			},
			"indices":4,
			"material":0
		}]
	}],
	"scenes":[{
		"nodes":[0,
		1]
	}],
	"nodes":[{
		"name":"Camera",
		"translation":[-1334.72,
		1889.687,
		3015.242],
		"rotation":[-0.257,
		-0.211,
		-0.058,
		0.941],
		"scale":[1,
		1,
		1],
		"camera":0
	},
	{
		"name":"Cube",
		"translation":[0,
		131.905,
		0],
		"rotation":[-0.261,
		0,
		0,
		-0.965],
		"scale":[1,
		1,
		-1],
		"mesh":0
	}],
	"cameras":[{
		"type":"perspective",
		"perspective":{
			"znear":0,
			"zfar":10000000000,
			"aspectRatio":1.778,
			"yfov":0.548
		}
	}],
	"accessors":[{
		"byteOffset":0,
		"bufferView":0,
		"type":"SCALAR",
		"componentType":5126,
		"count":81,
		"min":[0],
		"max":[2.667]
	},
	{
		"byteOffset":324,
		"bufferView":0,
		"type":"VEC3",
		"componentType":5126,
		"count":81,
		"min":[-1889.919,
		1365.328,
		2139.754],
		"max":[-1231.822,
		1986.869,
		3177.5]
	},
	{
		"byteOffset":0,
		"bufferView":1,
		"type":"SCALAR",
		"componentType":5126,
		"count":81,
		"min":[0],
		"max":[2.667]
	},
	{
		"byteOffset":324,
		"bufferView":1,
		"type":"VEC4",
		"componentType":5126,
		"count":81,
		"min":[-0.258,
		-0.342,
		-0.098,
		0.898],
		"max":[-0.256,
		-0.186,
		-0.05,
		0.947]
	},
	{
		"byteOffset":0,
		"bufferView":2,
		"type":"SCALAR",
		"componentType":5123,
		"count":36,
		"min":[0],
		"max":[23]
	},
	{
		"byteOffset":0,
		"bufferView":3,
		"type":"VEC3",
		"componentType":5126,
		"count":24,
		"min":[-81.465,
		-72.275,
		-81.223],
		"max":[81.465,
		72.275,
		81.223]
	},
	{
		"byteOffset":12,
		"bufferView":3,
		"type":"VEC3",
		"componentType":5126,
		"count":24,
		"min":[-1,
		-1,
		-1],
		"max":[1,
		1,
		1]
	},
	{
		"byteOffset":24,
		"bufferView":3,
		"type":"VEC2",
		"componentType":5126,
		"count":24,
		"min":[0,
		0],
		"max":[1,
		1]
	},
	{
		"byteOffset":0,
		"bufferView":4,
		"type":"SCALAR",
		"componentType":5126,
		"count":81,
		"min":[0],
		"max":[2.667]
	},
	{
		"byteOffset":324,
		"bufferView":4,
		"type":"VEC3",
		"componentType":5126,
		"count":81,
		"min":[0,
		-289.736,
		0],
		"max":[0,
		131.905,
		0]
	},
	{
		"byteOffset":0,
		"bufferView":5,
		"type":"SCALAR",
		"componentType":5126,
		"count":81,
		"min":[0],
		"max":[2.667]
	},
	{
		"byteOffset":324,
		"bufferView":5,
		"type":"VEC4",
		"componentType":5126,
		"count":81,
		"min":[-0.261,
		0,
		0,
		-1],
		"max":[0.39,
		0,
		0,
		-0.921]
	}],
	"bufferViews":[{
		"buffer":0,
		"byteOffset":0,
		"byteLength":1296
	},
	{
		"buffer":0,
		"byteOffset":1296,
		"byteLength":1620
	},
	{
		"target":34963,
		"buffer":1,
		"byteOffset":0,
		"byteLength":72
	},
	{
		"target":34962,
		"buffer":1,
		"byteOffset":72,
		"byteLength":768,
		"byteStride":32
	},
	{
		"buffer":2,
		"byteOffset":0,
		"byteLength":1296
	},
	{
		"buffer":2,
		"byteOffset":1296,
		"byteLength":1620
	}],
	"buffers":[{
		"uri":"data:application/octet-stream;base64,",
		"byteLength":2916
	},
	{
		"uri":"data:application/octet-stream;base64,",
		"byteLength":840
	},
	{
		"uri":"data:application/octet-stream;base64,",
		"byteLength":2916
	}],
	"materials":[{
		"pbrMetallicRoughness":{
			"baseColorFactor":[0.8,
			0.584,
			0.584,
			1],
			"metallicFactor":0,
			"roughnessFactor":0.5
		},
		"emissiveFactor":[0,
		0,
		0],
		"alphaMode":"OPAQUE",
		"doubleSided":false,
		"name":"Mat"
	}],
	"animations":[{
		"samplers":[{
			"input":0,
			"interpolation":"LINEAR",
			"output":1
		},
		{
			"input":2,
			"interpolation":"LINEAR",
			"output":3
		},
		{
			"input":8,
			"interpolation":"LINEAR",
			"output":9
		},
		{
			"input":10,
			"interpolation":"LINEAR",
			"output":11
		}],
		"channels":[{
			"sampler":0,
			"target":{
				"node":0,
				"path":"translation"
			}
		},
		{
			"sampler":1,
			"target":{
				"node":0,
				"path":"rotation"
			}
		},
		{
			"sampler":2,
			"target":{
				"node":1,
				"path":"translation"
			}
		},
		{
			"sampler":3,
			"target":{
				"node":1,
				"path":"rotation"
			}
		}]
	}]
}