{
	"asset":{
		"version":"2.0",
		"generator":"Created using the official Cinema 4D glTF Exporter 1.000x284978"
	},
	"meshes":[{
		"primitives":[{
			"attributes":{
				"POSITION":1,
				"NORMAL":2,
				"TEXCOORD_0":3
			},
			"indices":0,
			"material":0
		}]
	}],
	"scenes":[{
		"nodes":[0]
	}],
	"nodes":[{
		"name":"Cube",
		"translation":[0,
		-197.576,
		0],
		"rotation":[0.289,
		0,
		0,
		-0.957],
		"scale":[1,
		1,
		-1],
		"mesh":0,
		"children":[1]
	},
	{
		"name":"Camera",
		"translation":[-1231.822,
		1986.869,
		-3177.5],
		"rotation":[0.256,
		0.186,
		-0.05,
		0.947],
		"scale":[1,
		1,
		-1],
		"camera":0
	}],
	"cameras":[{
		"type":"perspective",
		"perspective":{
			"znear":0,
			"zfar":10000000000,
			"aspectRatio":1.778,
			"yfov":0.548
		}
	}],
	"accessors":[{
		"byteOffset":0,
		"bufferView":0,
		"type":"SCALAR",
		"componentType":5123,
		"count":36,
		"min":[0],
		"max":[23]
	},
	{
		"byteOffset":0,
		"bufferView":1,
		"type":"VEC3",
		"componentType":5126,
		"count":24,
		"min":[-25,
		-25,
		-25],
		"max":[25,
		25,
		25]
	},
	{
		"byteOffset":12,
		"bufferView":1,
		"type":"VEC3",
		"componentType":5126,
		"count":24,
		"min":[-1,
		-1,
		-1],
		"max":[1,
		1,
		1]
	},
	{
		"byteOffset":24,
		"bufferView":1,
		"type":"VEC2",
		"componentType":5126,
		"count":24,
		"min":[0,
		0],
		"max":[1,
		1]
	},
	{
		"byteOffset":0,
		"bufferView":2,
		"type":"SCALAR",
		"componentType":5126,
		"count":4,
		"min":[0],
		"max":[2.667]
	},
	{
		"byteOffset":16,
		"bufferView":2,
		"type":"VEC3",
		"componentType":5126,
		"count":12,
		"min":[0,
		-289.736,
		0],
		"max":[0,
		131.905,
		0]
	},
	{
		"byteOffset":0,
		"bufferView":3,
		"type":"SCALAR",
		"componentType":5126,
		"count":4,
		"min":[0],
		"max":[2.667]
	},
	{
		"byteOffset":16,
		"bufferView":3,
		"type":"VEC4",
		"componentType":5126,
		"count":4,
		"min":[-0.261,
		0,
		0,
		-1],
		"max":[0.39,
		0,
		0,
		-0.921]
	},
	{
		"byteOffset":0,
		"bufferView":4,
		"type":"SCALAR",
		"componentType":5126,
		"count":3,
		"min":[0],
		"max":[2.667]
	},
	{
		"byteOffset":12,
		"bufferView":4,
		"type":"VEC3",
		"componentType":5126,
		"count":3,
		"min":[-1889.919,
		1365.328,
		-3177.5],
		"max":[-1231.822,
		1986.869,
		-2139.754]
	},
	{
		"byteOffset":0,
		"bufferView":5,
		"type":"SCALAR",
		"componentType":5126,
		"count":3,
		"min":[0],
		"max":[2.667]
	},
	{
		"byteOffset":12,
		"bufferView":5,
		"type":"VEC4",
		"componentType":5126,
		"count":3,
		"min":[-0.258,
		-0.342,
		0.05,
		-0.947],
		"max":[-0.256,
		-0.186,
		0.098,
		-0.898]
	}],
	"bufferViews":[{
		"target":34963,
		"buffer":0,
		"byteOffset":0,
		"byteLength":72
	},
	{
		"target":34962,
		"buffer":0,
		"byteOffset":72,
		"byteLength":768,
		"byteStride":32
	},
	{
		"buffer":1,
		"byteOffset":0,
		"byteLength":160
	},
	{
		"buffer":1,
		"byteOffset":160,
		"byteLength":80
	},
	{
		"buffer":2,
		"byteOffset":0,
		"byteLength":48
	},
	{
		"buffer":2,
		"byteOffset":48,
		"byteLength":60
	}],
	"buffers":[{
		"uri":"data:application/octet-stream;base64,",
		"byteLength":840
	},
	{
		"uri":"data:application/octet-stream;base64,",
		"byteLength":240
	},
	{
		"uri":"data:application/octet-stream;base64,",
		"byteLength":108
	}],
	"materials":[{
		"pbrMetallicRoughness":{
			"baseColorFactor":[1,
			0.95,
			0,
			1],
			"metallicFactor":0,
			"roughnessFactor":0.5
		},
		"emissiveFactor":[0,
		0,
		0],
		"alphaMode":"OPAQUE",
		"doubleSided":false,
		"name":"Mat"
	}],
	"animations":[{
		"samplers":[{
			"input":4,
			"interpolation":"CUBICSPLINE",
			"output":5
		},
		{
			"input":6,
			"interpolation":"LINEAR",
			"output":7
		},
		{
			"input":8,
			"interpolation":"LINEAR",
			"output":9
		},
		{
			"input":10,
			"interpolation":"LINEAR",
			"output":11
		}],
		"channels":[{
			"sampler":0,
			"target":{
				"node":0,
				"path":"translation"
			}
		},
		{
			"sampler":1,
			"target":{
				"node":0,
				"path":"rotation"
			}
		},
		{
			"sampler":2,
			"target":{
				"node":1,
				"path":"translation"
			}
		},
		{
			"sampler":3,
			"target":{
				"node":1,
				"path":"rotation"
			}
		}]
	}]
}